<svg width="14" height="14" viewBox="0 0 14 14" fill="none" xmlns="http://www.w3.org/2000/svg">
<path d="M8.69479 13.5V8.59644H10.3577L10.6059 6.73208H8.69479V5.52469C8.69479 4.97426 8.84424 4.60139 9.64293 4.60139H10.6875V2.88352C10.5111 2.86133 9.89403 2.8125 9.19096 2.8125C7.72253 2.8125 6.73019 3.70473 6.73019 5.32494V6.73208H5.0625V8.59644H6.72979L6.72655 13.5H1.125C0.509766 13.5 0 12.9902 0 12.375V1.125C0 0.509766 0.509766 0 1.125 0H12.375C12.9902 0 13.5 0.509766 13.5 1.125V12.375C13.5 12.9902 12.9902 13.5 12.375 13.5H8.69479Z" fill="white"/>
</svg>
