<svg width="14" height="11" viewBox="0 0 14 11" fill="none" xmlns="http://www.w3.org/2000/svg">
<path fill-rule="evenodd" clip-rule="evenodd" d="M13.5 1.30106C13.0033 1.52044 12.4695 1.67006 11.9093 1.73588C12.4808 1.39331 12.9201 0.8505 13.1265 0.204187C12.5927 0.520875 11.9993 0.7515 11.3687 0.876938C10.863 0.338625 10.1424 0 9.34706 0C7.81763 0 6.57619 1.24144 6.57619 2.77087C6.57619 2.98856 6.60037 3.1995 6.64875 3.40144C4.34644 3.28725 2.30512 2.18419 0.9405 0.507375C0.700875 0.916312 0.56475 1.39331 0.56475 1.90069C0.56475 2.86087 1.05244 3.70913 1.79719 4.20581C1.34269 4.19006 0.916313 4.06744 0.542813 3.85819C0.542813 3.87169 0.542813 3.88238 0.542813 3.89363C0.542813 5.23631 1.49625 6.35681 2.76412 6.60938C2.53125 6.67294 2.28713 6.70838 2.03456 6.70838C1.85681 6.70838 1.68075 6.69094 1.51369 6.65775C1.86525 7.75856 2.88956 8.55844 4.10006 8.58262C3.15281 9.32512 1.9575 9.76669 0.6615 9.76669C0.437063 9.76669 0.217688 9.75375 0 9.72731C1.22625 10.5142 2.68088 10.9732 4.24519 10.9732C9.34031 10.9732 12.1269 6.75225 12.1269 3.0915C12.1269 2.97281 12.1224 2.85188 12.1179 2.73319C12.6585 2.34225 13.1287 1.85456 13.5 1.30106Z" fill="white"/>
</svg>
