<svg width="14" height="14" viewBox="0 0 14 14" fill="none" xmlns="http://www.w3.org/2000/svg">
<path fill-rule="evenodd" clip-rule="evenodd" d="M0 3.8957C0 1.74416 1.74415 0 3.8957 0H9.6043C11.7558 0 13.5 1.74415 13.5 3.8957V9.6043C13.5 11.7558 11.7559 13.5 9.6043 13.5H3.8957C1.74416 13.5 0 11.7559 0 9.6043V3.8957ZM1.22198 4.01189V9.48811C1.22198 11.0312 2.47107 12.278 4.01189 12.278H9.48811C11.0312 12.278 12.278 11.0289 12.278 9.48811V4.01189C12.278 2.46876 11.0289 1.22198 9.48811 1.22198H4.01189C2.46876 1.22198 1.22198 2.47107 1.22198 4.01189ZM6.75 10.1832C4.8539 10.1832 3.31681 8.6461 3.31681 6.75C3.31681 4.8539 4.8539 3.31681 6.75 3.31681C8.6461 3.31681 10.1832 4.8539 10.1832 6.75C10.1832 8.6461 8.6461 10.1832 6.75 10.1832ZM6.75 8.96121C7.97122 8.96121 8.96121 7.97122 8.96121 6.75C8.96121 5.52878 7.97122 4.53879 6.75 4.53879C5.52878 4.53879 4.53879 5.52878 4.53879 6.75C4.53879 7.97122 5.52878 8.96121 6.75 8.96121ZM10.2996 3.9569C9.84965 3.9569 9.48491 3.59216 9.48491 3.14224C9.48491 2.69232 9.84965 2.32759 10.2996 2.32759C10.7495 2.32759 11.1142 2.69232 11.1142 3.14224C11.1142 3.59216 10.7495 3.9569 10.2996 3.9569Z" fill="white"/>
</svg>
