<svg width="14" height="14" viewBox="0 0 14 14" fill="none" xmlns="http://www.w3.org/2000/svg">
<path d="M6.75 0C3.02124 0 0 3.02124 0 6.75C0 9.61084 1.77979 12.052 4.29126 13.0364C4.23193 12.5024 4.177 11.6829 4.31323 11.0984C4.43628 10.5732 5.10425 7.74316 5.10425 7.74316C5.10425 7.74316 4.9043 7.33887 4.9043 6.74121C4.9043 5.80298 5.44702 5.10205 6.12378 5.10205C6.69946 5.10205 6.97852 5.53491 6.97852 6.05347C6.97852 6.63354 6.60938 7.49927 6.41821 8.30127C6.26001 8.97363 6.75659 9.52075 7.41797 9.52075C8.61768 9.52075 9.54053 8.25513 9.54053 6.4292C9.54053 4.81421 8.38037 3.68481 6.72144 3.68481C4.80102 3.68481 3.67383 5.12402 3.67383 6.61377C3.67383 7.19385 3.89795 7.81567 4.177 8.15405C4.23193 8.21997 4.23853 8.2793 4.22315 8.34741C4.17041 8.56055 4.05835 9.01978 4.03638 9.11206C4.00562 9.2373 3.9375 9.26367 3.81006 9.20215C2.96631 8.81104 2.43897 7.57837 2.43897 6.5874C2.43897 4.45825 3.98584 2.50269 6.89941 2.50269C9.2417 2.50269 11.061 4.17041 11.061 6.40283C11.061 8.72754 9.59326 10.5996 7.55859 10.5996C6.87524 10.5996 6.23145 10.2458 6.01172 9.82617C6.01172 9.82617 5.67334 11.1138 5.58984 11.4302C5.43823 12.0168 5.02734 12.7507 4.75049 13.199C5.3833 13.3945 6.05347 13.5 6.75 13.5C10.4788 13.5 13.5 10.4788 13.5 6.75C13.5 3.02124 10.4788 0 6.75 0Z" fill="white"/>
</svg>
