<svg width="15" height="12" viewBox="0 0 15 12" fill="none" xmlns="http://www.w3.org/2000/svg">
<path d="M7.3125 0C9.43087 0 11.3029 0.219938 12.4453 0.387C13.3903 0.525375 14.1525 1.23694 14.3263 2.17969C14.4754 2.98406 14.625 4.15969 14.625 5.625C14.625 7.09031 14.4731 8.26594 14.3263 9.07031C14.1525 10.0131 13.3903 10.7269 12.4453 10.863C11.2984 11.0301 9.41963 11.25 7.3125 11.25C5.20538 11.25 3.32663 11.0301 2.17969 10.863C1.23469 10.7269 0.4725 10.0131 0.298687 9.07031C0.151875 8.26819 0 7.09481 0 5.625C0 4.15519 0.151875 2.98181 0.298687 2.17969C0.4725 1.23694 1.23469 0.525375 2.17969 0.387C3.32212 0.219938 5.19413 0 7.3125 0ZM5.625 2.40806V8.84194L6.46875 8.36719L10.4062 6.11719L11.25 5.625L10.4062 5.13281L6.46875 2.88281L5.625 2.40806Z" fill="white"/>
</svg>
