<svg width="25" height="25" viewBox="0 0 25 25" fill="none" xmlns="http://www.w3.org/2000/svg">
<path d="M24.0224 0.101456C23.8729 -0.0158534 23.6686 -0.0328823 23.5002 0.0579379L0.250178 12.6517C0.0817821 12.7425 -0.0166066 12.926 0.00231425 13.1171C0.0193431 13.3082 0.148005 13.471 0.329646 13.5296L6.93872 15.6866L6.29919 22.2294C6.27838 22.4376 6.39379 22.6344 6.58489 22.7157C6.64544 22.7441 6.71167 22.7573 6.776 22.7573C6.91033 22.7573 7.04278 22.7006 7.13549 22.5946L11.3038 17.8852L17.5798 24.0723C17.6707 24.1613 17.7917 24.2105 17.9166 24.2105C17.9601 24.2105 18.0037 24.2029 18.0472 24.1915C18.2118 24.1461 18.3405 24.0137 18.3821 23.8472L24.1946 0.597184C24.24 0.411759 24.1738 0.216874 24.0224 0.101456ZM7.91125 15.5977L17.3622 7.95552L10.9216 16.8729L7.3966 20.852L7.91125 15.5977Z" fill="white"/>
</svg>
